<?xml version="1.0" standalone="no"?>
<!DOCTYPE svg PUBLIC "-//W3C//DTD SVG 20010904//EN"
 "http://www.w3.org/TR/2001/REC-SVG-20010904/DTD/svg10.dtd">
<svg version="1.0" xmlns="http://www.w3.org/2000/svg"
 width="512.000000pt" height="512.000000pt" viewBox="0 0 512.000000 512.000000"
 preserveAspectRatio="xMidYMid meet">

<g transform="translate(0.000000,512.000000) scale(0.100000,-0.100000)"
fill="#000000" stroke="none">
<path d="M4206 4385 c-60 -41 -117 -82 -127 -91 -37 -33 -25 -72 61 -194 87
-124 93 -130 131 -130 36 0 257 154 270 188 13 34 8 45 -81 170 -72 102 -101
132 -130 132 -9 0 -65 -34 -124 -75z"/>
<path d="M3417 4396 c-74 -27 -110 -80 -110 -161 0 -31 8 -66 21 -91 25 -50
121 -139 179 -167 l43 -21 43 21 c61 30 152 116 177 169 43 89 14 200 -63 241
-29 15 -50 17 -154 12 -10 0 -36 2 -58 5 -24 4 -55 1 -78 -8z"/>
</g>
</svg>
