<?xml version="1.0" standalone="no"?>
<!DOCTYPE svg PUBLIC "-//W3C//DTD SVG 20010904//EN"
 "http://www.w3.org/TR/2001/REC-SVG-20010904/DTD/svg10.dtd">
<svg version="1.0" xmlns="http://www.w3.org/2000/svg"
 width="512.000000pt" height="512.000000pt" viewBox="0 0 512.000000 512.000000"
 preserveAspectRatio="xMidYMid meet">
<metadata>
Created by potrace 1.14, written by Peter Selinger 2001-2017
</metadata>
<g transform="translate(0.000000,512.000000) scale(0.100000,-0.100000)"
fill="#000000" stroke="none">
<path d="M933 5105 c-116 -36 -205 -128 -237 -245 -13 -48 -14 -334 -14 -2299
0 -1313 4 -2261 10 -2285 23 -105 93 -193 193 -242 l60 -29 1615 0 1615 0 57
27 c97 45 173 139 196 244 6 25 9 968 8 2310 l-2 2269 -20 45 c-38 82 -95 142
-169 180 l-69 35 -1600 2 c-1308 1 -1609 -1 -1643 -12z"/>
</g>
</svg>
